<svg xmlns="http://www.w3.org/2000/svg" xmlns:xlink="http://www.w3.org/1999/xlink" version="1.1" style="" xml:space="preserve" width="512" height="512"><rect id="backgroundrect" width="100%" height="100%" x="0" y="0" fill="none" stroke="none"/>
















<g class="currentLayer" style=""><title>Layer 1</title><g id="svg_1" class="selected" fill-opacity="1" fill="#ffffff" stroke="#ffffff" stroke-opacity="1">
	<g id="svg_2" fill="#ffffff" stroke="#ffffff" stroke-opacity="1" fill-opacity="1">
		<g id="svg_3" fill="#ffffff" stroke="#ffffff" stroke-opacity="1" fill-opacity="1">
			<path d="M486.4,273.067 h-8.533 v-179.2 c0,-42.667 -34.133,-76.8 -76.8,-76.8 c-37.77,0 -64.935,28.006 -67.974,69.041 c-19.829,3.748 -34.426,20.826 -34.426,41.892 c0,5.12 3.4130000000000003,8.533 8.533,8.533 h68.267 c5.12,0 8.533,-3.4130000000000003 8.533,-8.533 c0,-20.833 -14.274000000000001,-37.769 -33.767,-41.767 c2.55,-27.116 18.836,-52.1 50.834,-52.1 c33.28,0 59.733,26.453 59.733,59.733 v179.2 H203.975 c-3.8600000000000003,-19.681 -20.878,-34.133 -41.841,-34.133 c-8.533,-10.24 -20.48,-17.067 -34.133,-17.067 c-16.213,0 -30.72,9.387 -37.547,23.04 c-6.827,-3.4130000000000003 -14.507,-5.973 -22.187,-5.973 c-20.963,0 -37.981,14.452 -41.841,34.133 H25.6 c-14.507,0 -25.6,11.093 -25.6,25.6 c0,14.507 11.093,25.6 25.6,25.6 h10.255 l23.025,91.307 c6.827,26.453 30.72,45.227 58.027,45.227 h6.827 l-11.093,22.187 c-2.56,4.267 -0.8530000000000001,9.387 3.4130000000000003,11.093 c0.8530000000000001,0.8530000000000001 2.56,0.8530000000000001 3.4130000000000003,0.8530000000000001 c3.4130000000000003,0 5.973,-1.707 7.68,-4.267 L142.08,460.8 h236.8 l14.507,29.013 c1.707,3.4130000000000003 4.267,5.12 7.68,5.12 c1.707,0 2.56,0 3.4130000000000003,-1.707 c3.4130000000000003,-1.707 5.12,-6.827 3.4130000000000003,-11.093 l-10.689,-21.379 c26.419,-0.9380000000000001 49.266,-19.39 55.916,-44.328 l23.24,-92.16 h10.04 c14.507,0 25.6,-11.093 25.6,-25.6 C512,284.16 500.907,273.067 486.4,273.067 zM366.08,119.467 h-48.64 c3.4130000000000003,-10.24 13.653,-17.067 24.747,-17.067 S362.667,109.227 366.08,119.467 zM68.267,256 c7.68,0 14.507,3.4130000000000003 20.48,9.387 c1.707,2.56 5.12,3.4130000000000003 8.533,2.56 s5.12,-3.4130000000000003 5.973,-6.827 c2.56,-12.8 12.8,-22.187 25.6,-22.187 c9.387,0 17.92,4.267 22.187,12.8 c1.707,3.4130000000000003 5.973,5.12 9.387,4.267 c0.8530000000000001,0 1.707,0 2.56,0 c11.093,0 20.48,6.827 23.893,17.067 H44.373 C47.787,262.827 57.173,256 68.267,256 zM437.76,411.307 c-5.12,18.773 -22.187,32.427 -41.813,32.427 H117.76 c-19.627,0 -36.693,-13.653 -41.813,-32.427 l-22.187,-87.04 h404.48 L437.76,411.307 zM486.4,307.2 h-17.067 H42.667 H25.6 c-5.12,0 -8.533,-3.4130000000000003 -8.533,-8.533 s3.4130000000000003,-8.533 8.533,-8.533 h8.533 h162.133 H486.4 c5.12,0 8.533,3.4130000000000003 8.533,8.533 S491.52,307.2 486.4,307.2 z" id="svg_4" fill="#ffffff" stroke="#ffffff" stroke-opacity="1" fill-opacity="1"/>
			<path d="M307.2,174.933 c5.12,0 8.533,-3.4130000000000003 8.533,-8.533 v-4.267 c0,-5.12 -3.4130000000000003,-8.533 -8.533,-8.533 s-8.533,3.4130000000000003 -8.533,8.533 v4.267 C298.667,171.52 302.08,174.933 307.2,174.933 z" id="svg_5" fill="#ffffff" stroke="#ffffff" stroke-opacity="1" fill-opacity="1"/>
			<path d="M307.2,214.187 c5.12,0 8.533,-4.267 8.533,-8.533 v-9.387 c0,-5.12 -3.4130000000000003,-8.533 -8.533,-8.533 s-8.533,3.4130000000000003 -8.533,8.533 v9.387 C298.667,210.773 302.08,214.187 307.2,214.187 z" id="svg_6" fill="#ffffff" stroke="#ffffff" stroke-opacity="1" fill-opacity="1"/>
			<path d="M307.2,247.467 c5.12,0 8.533,-3.4130000000000003 8.533,-8.533 v-4.267 c0,-5.12 -3.4130000000000003,-8.533 -8.533,-8.533 s-8.533,3.4130000000000003 -8.533,8.533 v4.267 C298.667,244.053 302.08,247.467 307.2,247.467 z" id="svg_7" fill="#ffffff" stroke="#ffffff" stroke-opacity="1" fill-opacity="1"/>
			<path d="M341.333,174.933 c5.12,0 8.533,-3.4130000000000003 8.533,-8.533 v-4.267 c0,-5.12 -3.4130000000000003,-8.533 -8.533,-8.533 c-5.12,0 -8.533,3.4130000000000003 -8.533,8.533 v4.267 C332.8,171.52 336.213,174.933 341.333,174.933 z" id="svg_8" fill="#ffffff" stroke="#ffffff" stroke-opacity="1" fill-opacity="1"/>
			<path d="M332.8,205.653 c0,5.12 3.4130000000000003,8.533 8.533,8.533 c5.12,0 8.533,-4.267 8.533,-8.533 v-9.387 c0,-5.12 -3.4130000000000003,-8.533 -8.533,-8.533 c-5.12,0 -8.533,3.4130000000000003 -8.533,8.533 V205.653 z" id="svg_9" fill="#ffffff" stroke="#ffffff" stroke-opacity="1" fill-opacity="1"/>
			<path d="M332.8,238.933 c0,5.12 3.4130000000000003,8.533 8.533,8.533 c5.12,0 8.533,-3.4130000000000003 8.533,-8.533 v-4.267 c0,-5.12 -3.4130000000000003,-8.533 -8.533,-8.533 c-5.12,0 -8.533,3.4130000000000003 -8.533,8.533 V238.933 z" id="svg_10" fill="#ffffff" stroke="#ffffff" stroke-opacity="1" fill-opacity="1"/>
			<path d="M375.467,174.933 c5.12,0 8.533,-3.4130000000000003 8.533,-8.533 v-4.267 c0,-5.12 -3.4130000000000003,-8.533 -8.533,-8.533 s-8.533,3.4130000000000003 -8.533,8.533 v4.267 C366.933,171.52 370.347,174.933 375.467,174.933 z" id="svg_11" fill="#ffffff" stroke="#ffffff" stroke-opacity="1" fill-opacity="1"/>
			<path d="M366.933,205.653 c0,5.12 3.4130000000000003,8.533 8.533,8.533 S384,209.92 384,205.653 v-9.387 c0,-5.12 -3.4130000000000003,-8.533 -8.533,-8.533 s-8.533,3.4130000000000003 -8.533,8.533 V205.653 z" id="svg_12" fill="#ffffff" stroke="#ffffff" stroke-opacity="1" fill-opacity="1"/>
			<path d="M366.933,238.933 c0,5.12 3.4130000000000003,8.533 8.533,8.533 s8.533,-3.4130000000000003 8.533,-8.533 v-4.267 c0,-5.12 -3.4130000000000003,-8.533 -8.533,-8.533 s-8.533,3.4130000000000003 -8.533,8.533 V238.933 z" id="svg_13" fill="#ffffff" stroke="#ffffff" stroke-opacity="1" fill-opacity="1"/>
		</g>
	</g>
</g><g id="svg_14">
</g><g id="svg_15">
</g><g id="svg_16">
</g><g id="svg_17">
</g><g id="svg_18">
</g><g id="svg_19">
</g><g id="svg_20">
</g><g id="svg_21">
</g><g id="svg_22">
</g><g id="svg_23">
</g><g id="svg_24">
</g><g id="svg_25">
</g><g id="svg_26">
</g><g id="svg_27">
</g><g id="svg_28">
</g></g></svg>