<svg height="480pt" viewBox="-8 0 480 480" fill="#006aff" width="480pt" xmlns="http://www.w3.org/2000/svg"><path d="m83.207031 69.632812 88-66 9.601563 12.800782-88 66zm0 0"/><path d="m216 232h112c4.417969 0 8-3.582031 8-8v-56c0-4.417969-3.582031-8-8-8h-112c-4.417969 0-8 3.582031-8 8v56c0 4.417969 3.582031 8 8 8zm104-16h-40v-40h40zm-96-40h40v40h-40zm0 0"/><path d="m224 48h16v16h-16zm0 0"/><path d="m200 88h16v16h-16zm0 0"/><path d="m152 88h16v16h-16zm0 0"/><path d="m256 80h16v16h-16zm0 0"/><path d="m296 88h16v16h-16zm0 0"/><path d="m48 449.113281v30.886719h16v-32.289062c5.773438-1.59375 11.199219-4.246094 16-7.824219v40.113281h16v-48.609375c2.320312-.46875 4.6875-.691406 7.054688-.671875 7.753906-.117188 15.277343 2.652344 21.097656 7.777344 17.75 14.378906 43.136718 14.378906 60.886718 0 12.15625-10.371094 30.046876-10.371094 42.199219 0 17.75 14.378906 43.140625 14.378906 60.890625 0 1.992188-1.441406 3.855469-2.761719 5.816406-3.902344l19.65625 26.207031 12.796876-9.601562-15.300782-20.398438c7.082032.335938 13.84375 3.046875 19.199219 7.695313 8.570313 7.09375 19.378906 10.914062 30.503906 10.785156 2.410157-.011719 4.8125-.1875 7.199219-.527344v31.246094h16v-36.703125c2.5-1.476563 4.925781-3.082031 7.265625-4.800781 2.710937-2.105469 5.640625-3.917969 8.734375-5.40625v46.910156h16v-49.128906c6.480469.699218 12.59375 3.359375 17.519531 7.625 8.566407 7.085937 19.363281 10.90625 30.480469 10.785156v-16c-7.765625.121094-15.300781-2.648438-21.136719-7.777344-7.636719-6.238281-17.023437-9.945312-26.863281-10.609375v-110.894531h16c4.417969 0 8-3.582031 8-8v-32c0-4.417969-3.582031-8-8-8h-56v-120h16c3.445312 0 6.5-2.203125 7.589844-5.46875 1.089844-3.269531-.035156-6.863281-2.789063-8.929688l-160-120c-2.84375-2.136718-6.757812-2.136718-9.601562 0l-160 120c-2.753907 2.066407-3.878907 5.660157-2.789063 8.929688 1.089844 3.265625 4.144532 5.46875 7.589844 5.46875h16v120h-56c-4.417969 0-8 3.582031-8 8v32c0 4.417969 3.582031 8 8 8h16v129.128906c-6.511719-.675781-12.65625-3.335937-17.601562-7.625-8.539063-7.074218-19.308594-10.898437-30.398438-10.785156v16c7.75-.121094 15.265625 2.652344 21.078125 7.777344 7.652344 6.253906 17.0625 9.964844 26.921875 10.617187zm230.777344-23.609375c-12.152344 10.367188-30.035156 10.367188-42.183594 0-17.757812-14.378906-43.152344-14.378906-60.90625 0-12.148438 10.367188-30.03125 10.367188-42.183594 0-8.554687-7.082031-19.34375-10.902344-30.449218-10.785156-2.359376 0-4.714844.160156-7.054688.480469v-111.199219h24v88c0 4.417969 3.582031 8 8 8h140l16.296875 21.726562c-2.007813 1.257813-3.816406 2.554688-5.519531 3.777344zm-142.777344-57.503906h128v16h-128zm0-16v-16h72v16zm72-32h-72v-16h72zm152.800781 113.28125c-7.761719.121094-15.289062-2.648438-21.113281-7.777344-8.558594-7.085937-19.351562-10.90625-30.464844-10.785156-3.191406-.003906-6.375.289062-9.511718.882812l-19.710938-26.265624v-29.335938c0-4.417969-3.582031-8-8-8h-48v-48h144v128.574219c-2.367188.484375-4.78125.722656-7.199219.707031zm39.199219-17.015625c-5.769531 1.554687-11.195312 4.179687-16 7.734375v-120h16zm-168-398.265625 136 102h-272zm-128 118h256v120h-168v-88c0-4.417969-3.582031-8-8-8h-48c-4.417969 0-8 3.582031-8 8v88h-24zm72 120h-32v-80h32zm-136 16h384v16h-384zm40 32v116.625c-2.542969 1.5-5.007812 3.128906-7.382812 4.878906-2.683594 2.074219-5.570313 3.871094-8.617188 5.359375v-126.863281zm0 0"/></svg>