<?xml version="1.0" encoding="iso-8859-1"?>
<!-- Generator: Adobe Illustrator 19.0.0, SVG Export Plug-In . SVG Version: 6.00 Build 0)  -->
<svg version="1.1" id="Capa_1" xmlns="http://www.w3.org/2000/svg" xmlns:xlink="http://www.w3.org/1999/xlink" x="0px" y="0px"
	 viewBox="0 0 512.007 512.007" style="enable-background:new 0 0 512.007 512.007;" fill="#006aff" xml:space="preserve">
<g>
	<g>
		<path d="M138.528,23.381c-2.56-3.608-7.552-4.448-11.16-1.896l-124,88c-3.6,2.552-4.44,7.552-1.888,11.152
			c1.56,2.2,4.024,3.368,6.528,3.368c1.6,0,3.216-0.48,4.632-1.472l124-88C140.24,31.981,141.08,26.981,138.528,23.381z"/>
	</g>
</g>
<g>
	<g>
		<path d="M260.64,109.477l-124-88c-3.616-2.552-8.6-1.712-11.16,1.896c-2.56,3.6-1.712,8.6,1.888,11.152l124,88
			c1.408,1,3.024,1.48,4.624,1.48c2.512,0,4.968-1.168,6.536-3.376C265.088,117.029,264.24,112.029,260.64,109.477z"/>
	</g>
</g>
<g>
	<g>
		<path d="M138.528,55.381c-2.56-3.608-7.552-4.448-11.16-1.896l-124,88c-3.6,2.552-4.44,7.552-1.888,11.152
			c1.56,2.2,4.024,3.368,6.528,3.368c1.6,0,3.216-0.48,4.632-1.472l124-88C140.24,63.981,141.08,58.981,138.528,55.381z"/>
	</g>
</g>
<g>
	<g>
		<path d="M260.64,141.477l-124-88c-3.616-2.552-8.6-1.712-11.16,1.896c-2.56,3.6-1.712,8.6,1.888,11.152l124,88
			c1.408,1,3.024,1.48,4.624,1.48c2.512,0,4.968-1.168,6.536-3.376C265.088,149.029,264.24,144.029,260.64,141.477z"/>
	</g>
</g>
<g>
	<g>
		<path d="M8,108.005c-4.424,0-8,3.584-8,8v32c0,4.416,3.576,8,8,8s8-3.584,8-8v-32C16,111.589,12.424,108.005,8,108.005z"/>
	</g>
</g>
<g>
	<g>
		<path d="M256,108.005c-4.424,0-8,3.584-8,8v32c0,4.416,3.576,8,8,8s8-3.584,8-8v-32C264,111.589,260.424,108.005,256,108.005z"/>
	</g>
</g>
<g>
	<g>
		<path d="M386.528,23.381c-2.568-3.608-7.552-4.448-11.16-1.896l-124,88c-3.6,2.552-4.44,7.552-1.888,11.152
			c1.56,2.2,4.024,3.368,6.528,3.368c1.6,0,3.216-0.48,4.632-1.472l124-88C388.24,31.981,389.08,26.981,386.528,23.381z"/>
	</g>
</g>
<g>
	<g>
		<path d="M508.64,109.477l-124-88c-3.616-2.552-8.6-1.712-11.16,1.896c-2.56,3.6-1.712,8.6,1.888,11.152l124,88
			c1.408,1,3.024,1.48,4.624,1.48c2.512,0,4.968-1.168,6.536-3.376C513.088,117.029,512.24,112.029,508.64,109.477z"/>
	</g>
</g>
<g>
	<g>
		<path d="M386.528,55.381c-2.568-3.608-7.552-4.448-11.16-1.896l-124,88c-3.6,2.552-4.44,7.552-1.888,11.152
			c1.56,2.2,4.024,3.368,6.528,3.368c1.6,0,3.216-0.48,4.632-1.472l124-88C388.24,63.981,389.08,58.981,386.528,55.381z"/>
	</g>
</g>
<g>
	<g>
		<path d="M508.64,141.477l-124-88c-3.616-2.552-8.6-1.712-11.16,1.896c-2.56,3.6-1.712,8.6,1.888,11.152l124,88
			c1.408,1,3.024,1.48,4.624,1.48c2.512,0,4.968-1.168,6.536-3.376C513.088,149.029,512.24,144.029,508.64,141.477z"/>
	</g>
</g>
<g>
	<g>
		<path d="M256,108.005c-4.424,0-8,3.584-8,8v368c0,4.424,3.576,8,8,8s8-3.576,8-8v-368C264,111.589,260.424,108.005,256,108.005z"
			/>
	</g>
</g>
<g>
	<g>
		<path d="M504,108.005c-4.424,0-8,3.584-8,8v32c0,4.416,3.576,8,8,8s8-3.584,8-8v-32C512,111.589,508.424,108.005,504,108.005z"/>
	</g>
</g>
<g>
	<g>
		<path d="M504,140.005c-4.424,0-8,3.584-8,8v336c0,4.424,3.576,8,8,8s8-3.576,8-8v-336C512,143.589,508.424,140.005,504,140.005z"
			/>
	</g>
</g>
<g>
	<g>
		<path d="M8,140.005c-4.424,0-8,3.584-8,8v336c0,4.424,3.576,8,8,8s8-3.576,8-8v-336C16,143.589,12.424,140.005,8,140.005z"/>
	</g>
</g>
<g>
	<g>
		<path d="M312,356.005H200c-4.424,0-8,3.576-8,8v120c0,4.424,3.576,8,8,8h112c4.424,0,8-3.576,8-8v-120
			C320,359.581,316.424,356.005,312,356.005z M304,476.005h-96v-104h96V476.005z"/>
	</g>
</g>
<g>
	<g>
		<path d="M280.24,412.005h-0.088c-4.416,0-7.952,3.576-7.952,8s3.616,8,8.04,8c4.416,0,8-3.576,8-8S284.656,412.005,280.24,412.005
			z"/>
	</g>
</g>
<g>
	<g>
		<path d="M232.24,412.005h-0.088c-4.416,0-7.952,3.576-7.952,8s3.616,8,8.04,8c4.416,0,8-3.576,8-8S236.656,412.005,232.24,412.005
			z"/>
	</g>
</g>
<g>
	<g>
		<path d="M504,292.005H8c-4.424,0-8,3.576-8,8s3.576,8,8,8h496c4.424,0,8-3.576,8-8S508.424,292.005,504,292.005z"/>
	</g>
</g>
<g>
	<g>
		<path d="M132,116.005c-33.088,0-60,26.912-60,60c0,4.416,3.576,8,8,8s8-3.584,8-8c0-24.264,19.744-44,44-44s44,19.736,44,44
			c0,4.416,3.576,8,8,8s8-3.584,8-8C192,142.917,165.088,116.005,132,116.005z"/>
	</g>
</g>
<g>
	<g>
		<path d="M40,220.005c-4.424,0-8,3.584-8,8v72c0,4.424,3.576,8,8,8s8-3.576,8-8v-72C48,223.589,44.424,220.005,40,220.005z"/>
	</g>
</g>
<g>
	<g>
		<path d="M72,220.005c-4.424,0-8,3.584-8,8v72c0,4.424,3.576,8,8,8s8-3.576,8-8v-72C80,223.589,76.424,220.005,72,220.005z"/>
	</g>
</g>
<g>
	<g>
		<path d="M112,220.005c-4.424,0-8,3.584-8,8v72c0,4.424,3.576,8,8,8s8-3.576,8-8v-72C120,223.589,116.424,220.005,112,220.005z"/>
	</g>
</g>
<g>
	<g>
		<path d="M152,220.005c-4.424,0-8,3.584-8,8v72c0,4.424,3.576,8,8,8s8-3.576,8-8v-72C160,223.589,156.424,220.005,152,220.005z"/>
	</g>
</g>
<g>
	<g>
		<path d="M192,220.005c-4.424,0-8,3.584-8,8v72c0,4.424,3.576,8,8,8s8-3.576,8-8v-72C200,223.589,196.424,220.005,192,220.005z"/>
	</g>
</g>
<g>
	<g>
		<path d="M224,220.005c-4.424,0-8,3.584-8,8v72c0,4.424,3.576,8,8,8s8-3.576,8-8v-72C232,223.589,228.424,220.005,224,220.005z"/>
	</g>
</g>
<g>
	<g>
		<path d="M224,220.005H40c-4.424,0-8,3.584-8,8s3.576,8,8,8h184c4.424,0,8-3.584,8-8S228.424,220.005,224,220.005z"/>
	</g>
</g>
<g>
	<g>
		<path d="M80,168.005c-4.424,0-8,3.584-8,8v52c0,4.416,3.576,8,8,8s8-3.584,8-8v-52C88,171.589,84.424,168.005,80,168.005z"/>
	</g>
</g>
<g>
	<g>
		<path d="M184,168.005c-4.424,0-8,3.584-8,8v52c0,4.416,3.576,8,8,8s8-3.584,8-8v-52C192,171.589,188.424,168.005,184,168.005z"/>
	</g>
</g>
<g>
	<g>
		<path d="M184,172.005H80c-4.424,0-8,3.584-8,8s3.576,8,8,8h104c4.424,0,8-3.584,8-8S188.424,172.005,184,172.005z"/>
	</g>
</g>
<g>
	<g>
		<path d="M380,116.005c-33.088,0-60,26.912-60,60c0,4.416,3.576,8,8,8s8-3.584,8-8c0-24.264,19.744-44,44-44
			c24.256,0,44,19.736,44,44c0,4.416,3.576,8,8,8s8-3.584,8-8C440,142.917,413.088,116.005,380,116.005z"/>
	</g>
</g>
<g>
	<g>
		<path d="M288,220.005c-4.424,0-8,3.584-8,8v72c0,4.424,3.576,8,8,8s8-3.576,8-8v-72C296,223.589,292.424,220.005,288,220.005z"/>
	</g>
</g>
<g>
	<g>
		<path d="M320,220.005c-4.424,0-8,3.584-8,8v72c0,4.424,3.576,8,8,8s8-3.576,8-8v-72C328,223.589,324.424,220.005,320,220.005z"/>
	</g>
</g>
<g>
	<g>
		<path d="M360,220.005c-4.424,0-8,3.584-8,8v72c0,4.424,3.576,8,8,8s8-3.576,8-8v-72C368,223.589,364.424,220.005,360,220.005z"/>
	</g>
</g>
<g>
	<g>
		<path d="M400,220.005c-4.424,0-8,3.584-8,8v72c0,4.424,3.576,8,8,8s8-3.576,8-8v-72C408,223.589,404.424,220.005,400,220.005z"/>
	</g>
</g>
<g>
	<g>
		<path d="M440,220.005c-4.424,0-8,3.584-8,8v72c0,4.424,3.576,8,8,8s8-3.576,8-8v-72C448,223.589,444.424,220.005,440,220.005z"/>
	</g>
</g>
<g>
	<g>
		<path d="M472,220.005c-4.424,0-8,3.584-8,8v72c0,4.424,3.576,8,8,8s8-3.576,8-8v-72C480,223.589,476.424,220.005,472,220.005z"/>
	</g>
</g>
<g>
	<g>
		<path d="M472,220.005H288c-4.424,0-8,3.584-8,8s3.576,8,8,8h184c4.424,0,8-3.584,8-8S476.424,220.005,472,220.005z"/>
	</g>
</g>
<g>
	<g>
		<path d="M328,168.005c-4.424,0-8,3.584-8,8v52c0,4.416,3.576,8,8,8s8-3.584,8-8v-52C336,171.589,332.424,168.005,328,168.005z"/>
	</g>
</g>
<g>
	<g>
		<path d="M432,168.005c-4.424,0-8,3.584-8,8v52c0,4.416,3.576,8,8,8s8-3.584,8-8v-52C440,171.589,436.424,168.005,432,168.005z"/>
	</g>
</g>
<g>
	<g>
		<path d="M432,172.005H328c-4.424,0-8,3.584-8,8s3.576,8,8,8h104c4.424,0,8-3.584,8-8S436.424,172.005,432,172.005z"/>
	</g>
</g>
<g>
	<g>
		<path d="M464,332.005H344c-4.424,0-8,3.576-8,8v80c0,4.424,3.576,8,8,8h120c4.424,0,8-3.576,8-8v-80
			C472,335.581,468.424,332.005,464,332.005z M456,412.005H352v-64h104V412.005z"/>
	</g>
</g>
<g>
	<g>
		<path d="M464,372.005H344c-4.424,0-8,3.576-8,8s3.576,8,8,8h120c4.424,0,8-3.576,8-8S468.424,372.005,464,372.005z"/>
	</g>
</g>
<g>
	<g>
		<path d="M384,332.005c-4.424,0-8,3.576-8,8v80c0,4.424,3.576,8,8,8s8-3.576,8-8v-80C392,335.581,388.424,332.005,384,332.005z"/>
	</g>
</g>
<g>
	<g>
		<path d="M424,332.005c-4.424,0-8,3.576-8,8v80c0,4.424,3.576,8,8,8s8-3.576,8-8v-80C432,335.581,428.424,332.005,424,332.005z"/>
	</g>
</g>
<g>
	<g>
		<path d="M168,332.005H48c-4.424,0-8,3.576-8,8v80c0,4.424,3.576,8,8,8h120c4.424,0,8-3.576,8-8v-80
			C176,335.581,172.424,332.005,168,332.005z M160,412.005H56v-64h104V412.005z"/>
	</g>
</g>
<g>
	<g>
		<path d="M168,372.005H48c-4.424,0-8,3.576-8,8s3.576,8,8,8h120c4.424,0,8-3.576,8-8S172.424,372.005,168,372.005z"/>
	</g>
</g>
<g>
	<g>
		<path d="M88,332.005c-4.424,0-8,3.576-8,8v80c0,4.424,3.576,8,8,8s8-3.576,8-8v-80C96,335.581,92.424,332.005,88,332.005z"/>
	</g>
</g>
<g>
	<g>
		<path d="M128,332.005c-4.424,0-8,3.576-8,8v80c0,4.424,3.576,8,8,8s8-3.576,8-8v-80C136,335.581,132.424,332.005,128,332.005z"/>
	</g>
</g>
<g>
	<g>
		<path d="M504,476.005H8c-4.424,0-8,3.576-8,8s3.576,8,8,8h496c4.424,0,8-3.576,8-8S508.424,476.005,504,476.005z"/>
	</g>
</g>
<g>
</g>
<g>
</g>
<g>
</g>
<g>
</g>
<g>
</g>
<g>
</g>
<g>
</g>
<g>
</g>
<g>
</g>
<g>
</g>
<g>
</g>
<g>
</g>
<g>
</g>
<g>
</g>
<g>
</g>
</svg>
