<svg xmlns="http://www.w3.org/2000/svg" xmlns:xlink="http://www.w3.org/1999/xlink" version="1.1" style="" xml:space="preserve" width="266.7980041503906" height="266.7980041503906"><rect id="backgroundrect" width="100%" height="100%" x="0" y="0" fill="none" stroke="none"/>
















<g class="currentLayer" style=""><title>Layer 1</title><g id="svg_1" class="selected" fill-opacity="1" fill="#ffffff" stroke="none">
	<path d="M94.675,103.299c-2.526,0-4.574,2.048-4.574,4.574v69.403c0,2.526,2.048,4.574,4.574,4.574h46.267h46.268h46.266   c2.526,0,4.573-2.048,4.573-4.574v-69.403c0-2.526-2.047-4.574-4.573-4.574c-2.526,0-4.573,2.048-4.573,4.574v64.829h-37.119   v-64.829c0-2.526-2.047-4.574-4.573-4.574h-46.268c-2.526,0-4.573,2.048-4.573,4.574v64.829h-37.12v-64.829   C99.249,105.347,97.201,103.299,94.675,103.299z M145.515,112.447h37.122v60.255h-37.122V112.447z" id="svg_2" fill="#ffffff" stroke="none" fill-opacity="1"/>
	<path d="M69.16,111.107l94.911-94.911l94.917,94.912c0.893,0.893,2.063,1.339,3.234,1.339s2.341-0.447,3.234-1.34   c1.786-1.786,1.786-4.682,0-6.468l-47.735-47.732V9.728c0-2.526-2.047-4.574-4.573-4.574c-2.526,0-4.573,2.048-4.573,4.574v38.033   l-41.27-41.267c-1.787-1.786-4.682-1.786-6.469,0l-98.144,98.145c-1.786,1.786-1.786,4.682,0,6.468   C64.478,112.893,67.374,112.893,69.16,111.107z" id="svg_3" fill="#ffffff" stroke="none" fill-opacity="1"/>
	<path d="M262.222,210.458c-2.526,0-4.573,2.048-4.573,4.574v19.024H70.5v-19.024c0-2.526-2.048-4.574-4.574-4.574   c-2.526,0-4.574,2.048-4.574,4.574v47.192c0,2.526,2.048,4.574,4.574,4.574c2.526,0,4.574-2.048,4.574-4.574v-19.021h187.149   v19.021c0,2.526,2.047,4.574,4.573,4.574c2.526,0,4.573-2.048,4.573-4.574v-47.192   C266.796,212.506,264.749,210.458,262.222,210.458z" id="svg_4" fill="#ffffff" stroke="none" fill-opacity="1"/>
	<path d="M51.767,9.147c2.526,0,4.574-2.048,4.574-4.574S54.293,0,51.767,0H4.575C2.049,0,0.002,2.048,0.002,4.574   s2.048,4.574,4.574,4.574h19.021v187.149H4.575c-2.526,0-4.574,2.048-4.574,4.574c0,2.526,2.048,4.574,4.574,4.574h47.192   c2.526,0,4.574-2.048,4.574-4.574c0-2.526-2.048-4.574-4.574-4.574H32.744V9.147H51.767z" id="svg_5" fill="#ffffff" stroke="none" fill-opacity="1"/>
</g><g id="svg_6">
</g><g id="svg_7">
</g><g id="svg_8">
</g><g id="svg_9">
</g><g id="svg_10">
</g><g id="svg_11">
</g><g id="svg_12">
</g><g id="svg_13">
</g><g id="svg_14">
</g><g id="svg_15">
</g><g id="svg_16">
</g><g id="svg_17">
</g><g id="svg_18">
</g><g id="svg_19">
</g><g id="svg_20">
</g></g></svg>