<svg xmlns="http://www.w3.org/2000/svg" xmlns:xlink="http://www.w3.org/1999/xlink" version="1.1" style="enable-background:new 0 0 337.073 337.073;" xml:space="preserve" width="337.072998046875" height="337.072998046875"><rect id="backgroundrect" width="100%" height="100%" x="0" y="0" fill="none" stroke="none"/>
















<g class="currentLayer" style=""><title>Layer 1</title><g id="svg_1" class="selected" fill-opacity="1" fill="#ffffff">
	<path d="M44.948,190.345L168.534,66.757l123.588,123.588c0.893,0.893,2.064,1.34,3.234,1.34s2.341-0.447,3.234-1.34   c1.786-1.786,1.786-4.682,0-6.468l-62.068-62.068v-61.52c0-2.526-2.048-4.574-4.574-4.574c-2.526,0-4.574,2.048-4.574,4.574v52.372   l-55.606-55.606c-0.858-0.858-2.021-1.34-3.234-1.34c-1.213,0-2.376,0.482-3.234,1.34L38.48,183.877   c-1.786,1.786-1.786,4.682,0,6.468C40.267,192.131,43.162,192.131,44.948,190.345z" id="svg_2" fill="#ffffff" fill-opacity="1"/>
	<path d="M332.499,227.374c-2.526,0-4.574,2.048-4.574,4.574v17.845H299.93v-17.845c0-2.526-2.048-4.574-4.574-4.574   c-2.526,0-4.574,2.048-4.574,4.574v17.845h-27.995v-62.682c0-2.526-2.048-4.574-4.574-4.574c-2.526,0-4.574,2.048-4.574,4.574   v67.227c0,0.01-0.003,0.02-0.003,0.029c0,0.01,0.003,0.019,0.003,0.029v17.815h-50.638v-85.1c0-2.526-2.048-4.574-4.574-4.574   h-59.784c-2.526,0-4.574,2.048-4.574,4.574v85.1H83.433v-85.1c0-2.526-2.048-4.574-4.574-4.574c-2.526,0-4.574,2.048-4.574,4.574   v62.682H46.29v-17.845c0-2.526-2.048-4.574-4.574-4.574c-2.526,0-4.574,2.048-4.574,4.574v17.845H9.147v-17.845   c0-2.526-2.048-4.574-4.574-4.574c-2.526,0-4.574,2.048-4.574,4.574v44.837c0,2.526,2.048,4.574,4.574,4.574   c2.526,0,4.574-2.048,4.574-4.574V258.94h27.995v17.844c0,2.526,2.048,4.574,4.574,4.574c2.526,0,4.574-2.048,4.574-4.574V258.94   h27.995v17.844c0,2.526,2.048,4.574,4.574,4.574h59.785h59.784h59.785c2.526,0,4.574-2.048,4.574-4.574V258.94h27.995v17.844   c0,2.526,2.048,4.574,4.574,4.574c2.526,0,4.574-2.048,4.574-4.574V258.94h27.996v17.844c0,2.526,2.048,4.574,4.574,4.574   c2.526,0,4.574-2.048,4.574-4.574v-44.837C337.073,229.422,335.025,227.374,332.499,227.374z M143.218,272.211v-80.526h50.637   v80.526H143.218z" id="svg_3" fill="#ffffff" fill-opacity="1"/>
</g><g id="svg_4">
</g><g id="svg_5">
</g><g id="svg_6">
</g><g id="svg_7">
</g><g id="svg_8">
</g><g id="svg_9">
</g><g id="svg_10">
</g><g id="svg_11">
</g><g id="svg_12">
</g><g id="svg_13">
</g><g id="svg_14">
</g><g id="svg_15">
</g><g id="svg_16">
</g><g id="svg_17">
</g><g id="svg_18">
</g></g></svg>