<?xml version="1.0" encoding="iso-8859-1"?>
<!-- Generator: Adobe Illustrator 19.0.0, SVG Export Plug-In . SVG Version: 6.00 Build 0)  -->
<svg version="1.1" id="Capa_1" xmlns="http://www.w3.org/2000/svg" xmlns:xlink="http://www.w3.org/1999/xlink" x="0px" y="0px"
	 viewBox="0 0 512 512" style="enable-background:new 0 0 512 512; fill: #006aff;" xml:space="preserve">
<g>
	<g>
		<path d="M291.377,141.948h-70.751c-4.143,0-7.5,3.358-7.5,7.5V367.09c0,4.142,3.357,7.5,7.5,7.5h70.751c4.143,0,7.5-3.358,7.5-7.5
			V149.448C298.877,145.306,295.52,141.948,291.377,141.948z M228.125,156.948h55.751v28.528h-55.751V156.948z M228.125,200.476
			h55.751v28.529h-55.751V200.476z M228.125,287.533h55.751v28.529h-55.751V287.533z M283.877,359.59h-55.751v0v-28.528h55.751
			V359.59z M283.877,272.533h-55.751v-28.528h55.751V272.533z"/>
	</g>
</g>
<g>
	<g>
		<path d="M175.299,141.948h-70.752c-4.142,0-7.5,3.358-7.5,7.5v304.699c0,4.142,3.358,7.5,7.5,7.5h70.752
			c4.143,0,7.5-3.358,7.5-7.5V149.448C182.799,145.306,179.441,141.948,175.299,141.948z M167.799,446.647h-55.752v-28.529h55.752
			V446.647z M167.799,403.118h-55.752V374.59h55.752V403.118z M167.799,359.59h-55.752v-28.528h55.752V359.59z M167.799,316.062
			h-55.752v-28.529h55.752V316.062z M167.799,272.533h-55.752v-28.528h55.752V272.533z M167.799,229.005h-55.752v-28.529h55.752
			V229.005z M167.799,185.476h-55.752v-28.528h55.752V185.476z"/>
	</g>
</g>
<g>
	<g>
		<path d="M407.454,141.948h-70.752c-4.143,0-7.5,3.358-7.5,7.5v304.699c0,4.142,3.357,7.5,7.5,7.5h70.752
			c4.143,0,7.5-3.358,7.5-7.5V149.448C414.954,145.306,411.598,141.948,407.454,141.948z M344.203,244.005h55.752v28.528h-55.752
			V244.005z M399.954,446.647h-55.752v-28.529h55.752V446.647z M399.955,403.118h-55.752V374.59h55.752V403.118z M399.955,359.59
			h-55.752v-28.528h55.752V359.59z M399.955,316.062h-55.752v-28.529h55.752V316.062z M399.955,229.005h-55.752v-28.529h55.752
			V229.005z M399.955,185.476h-55.752v-28.528h55.752V185.476z"/>
	</g>
</g>
<g>
	<g>
		<path d="M462.486,65.585h-13.128V34.503c0,0,13.098,0,13.128,0c9.662,0,9.684-15,0-15H263.501V7.5c0-4.142-3.358-7.5-7.5-7.5
			H70.142c-4.142,0-7.5,3.358-7.5,7.5v58.085H49.514c-4.142,0-7.5,3.358-7.5,7.5v37.095c0,4.142,3.358,7.5,7.5,7.5h13.127V504.5
			c0,4.142,3.358,7.5,7.5,7.5h371.718c4.143,0,7.5-3.358,7.5-7.5V117.681h13.128c4.143,0,7.5-3.358,7.5-7.5V73.085
			C469.986,68.943,466.629,65.585,462.486,65.585z M412.188,34.503h22.172v31.082h-22.172V34.503z M375.016,34.503h22.172v31.082
			h-22.172V34.503z M337.844,34.503h22.172v31.082h-22.172V34.503z M300.672,34.503h22.172v31.082h-22.172V34.503z M263.501,34.503
			h22.171v31.082h-22.171V34.503z M77.642,15h170.859v50.585H182.8V34.259c0-4.142-3.357-7.5-7.5-7.5h-70.752
			c-4.142,0-7.5,3.358-7.5,7.5v31.327H77.642V15z M167.799,41.759v23.826h-55.752V41.759H167.799z M298.092,497H213.91v-84.506
			h84.183V497z M454.988,102.681c0,0-265.253,0-265.551,0c-9.652,0-9.685,15,0,15H434.36V497H313.092v-92.006
			c0-4.142-3.357-7.5-7.5-7.5h-99.183c-4.143,0-7.5,3.358-7.5,7.5V497H77.642V117.681c0,0,81.684,0,81.795,0c9.64,0,9.688-15,0-15
			H57.014V80.585h397.974V102.681z"/>
	</g>
</g>
<g>
</g>
<g>
</g>
<g>
</g>
<g>
</g>
<g>
</g>
<g>
</g>
<g>
</g>
<g>
</g>
<g>
</g>
<g>
</g>
<g>
</g>
<g>
</g>
<g>
</g>
<g>
</g>
<g>
</g>
</svg>
