<svg xmlns="http://www.w3.org/2000/svg" xmlns:xlink="http://www.w3.org/1999/xlink" version="1.1" style="" xml:space="preserve" width="410.9859924316406" height="410.9859924316406"><rect id="backgroundrect" width="100%" height="100%" x="0" y="0" fill="none" stroke="none"/>
















<g class="currentLayer" style=""><title>Layer 1</title><g id="svg_1" class="selected" fill-opacity="1" fill="#ffffff">
	<g id="svg_2" fill="#ffffff" fill-opacity="1">
		<path d="M354.2919918704033,118.09199187040329 c-14.799,0 -22.337,-6.899 -28.988,-12.986 c-6.005,-5.497 -10.749,-9.839 -20.886,-9.839 c-10.137,0 -14.881,4.3420000000000005 -20.887,9.839 c-6.65,6.087 -14.188,12.986 -28.988,12.986 c-14.8,0 -22.337,-6.899 -28.988,-12.986 c-6.005,-5.497 -10.748,-9.839 -20.885,-9.839 c-10.136,0 -14.879,4.3420000000000005 -20.884,9.839 c-6.65,6.087 -14.188,12.986 -28.988,12.986 c-14.798,0 -22.334,-6.899 -28.984,-12.986 c-6.004,-5.497 -10.747,-9.839 -20.882,-9.839 c-10.136,0 -14.879,4.3420000000000005 -20.884,9.839 c-6.65,6.087 -14.188,12.986 -28.987,12.986 c-14.8,0 -22.338,-6.899 -28.989,-12.986 C20.06699187040329,99.60899187040329 15.32399187040329,95.26699187040329 5.18699187040329,95.26699187040329 c-3.313,0 -6,-2.686 -6,-6 c0,-3.313 2.6870000000000003,-6 6,-6 c14.799,0 22.337,6.899 28.988,12.986 c6.005,5.497 10.749,9.839 20.886,9.839 c10.136,0 14.879,-4.3420000000000005 20.884,-9.838000000000001 c6.65,-6.088 14.188,-12.987 28.987,-12.987 c14.798,0 22.335,6.9 28.985,12.987 c6.004,5.497 10.746,9.838000000000001 20.881,9.838000000000001 c10.137,0 14.88,-4.3420000000000005 20.885,-9.838000000000001 c6.65,-6.088 14.188,-12.987 28.987,-12.987 c14.8,0 22.337,6.899 28.988,12.987 c6.005,5.496 10.749,9.838000000000001 20.885,9.838000000000001 c10.138,0 14.881,-4.3420000000000005 20.886,-9.838000000000001 c6.651,-6.088 14.189,-12.987 28.989,-12.987 s22.338,6.899 28.989,12.987 c6.005,5.496 10.748,9.838000000000001 20.885,9.838000000000001 c10.139,0 14.883000000000001,-4.3420000000000005 20.89,-9.839 c6.651,-6.087 14.19,-12.986 28.991,-12.986 c3.313,0 6,2.6870000000000003 6,6 c0,3.314 -2.6870000000000003,6 -6,6 c-10.139,0 -14.883000000000001,4.3420000000000005 -20.89,9.839 C376.6319918704033,111.19299187040329 369.0939918704033,118.09199187040329 354.2919918704033,118.09199187040329 z" id="svg_3" fill="#ffffff" fill-opacity="1"/>
	</g>
	<g id="svg_4" fill="#ffffff" fill-opacity="1">
		<path d="M354.2919918704033,170.0919918704033 c-14.799,0 -22.337,-6.899 -28.988,-12.986 c-6.005,-5.497 -10.749,-9.839 -20.886,-9.839 c-10.137,0 -14.881,4.3420000000000005 -20.887,9.839 c-6.65,6.087 -14.188,12.986 -28.988,12.986 c-14.8,0 -22.337,-6.899 -28.988,-12.986 c-6.005,-5.497 -10.748,-9.839 -20.885,-9.839 c-10.136,0 -14.879,4.3420000000000005 -20.884,9.839 c-6.65,6.087 -14.188,12.986 -28.988,12.986 c-14.798,0 -22.334,-6.899 -28.984,-12.986 c-6.004,-5.497 -10.747,-9.839 -20.882,-9.839 c-10.136,0 -14.879,4.3420000000000005 -20.884,9.839 c-6.65,6.087 -14.188,12.986 -28.987,12.986 c-14.8,0 -22.338,-6.899 -28.989,-12.986 C20.06699187040329,151.6089918704033 15.32399187040329,147.2669918704033 5.18699187040329,147.2669918704033 c-3.313,0 -6,-2.686 -6,-6 c0,-3.313 2.6870000000000003,-6 6,-6 c14.799,0 22.337,6.899 28.988,12.986 c6.005,5.497 10.749,9.839 20.886,9.839 c10.136,0 14.879,-4.3420000000000005 20.884,-9.838000000000001 c6.65,-6.088 14.188,-12.987 28.987,-12.987 c14.798,0 22.335,6.9 28.985,12.987 c6.004,5.497 10.746,9.838000000000001 20.881,9.838000000000001 c10.137,0 14.88,-4.3420000000000005 20.885,-9.838000000000001 c6.65,-6.088 14.188,-12.987 28.987,-12.987 c14.8,0 22.337,6.899 28.988,12.987 c6.005,5.496 10.749,9.838000000000001 20.885,9.838000000000001 c10.138,0 14.881,-4.3420000000000005 20.886,-9.838000000000001 c6.651,-6.088 14.189,-12.987 28.989,-12.987 s22.338,6.899 28.989,12.987 c6.005,5.496 10.748,9.838000000000001 20.885,9.838000000000001 c10.139,0 14.883000000000001,-4.3420000000000005 20.89,-9.839 c6.651,-6.087 14.19,-12.986 28.991,-12.986 c3.313,0 6,2.6870000000000003 6,6 c0,3.314 -2.6870000000000003,6 -6,6 c-10.139,0 -14.883000000000001,4.3420000000000005 -20.89,9.839 C376.6319918704033,163.1929918704033 369.0939918704033,170.0919918704033 354.2919918704033,170.0919918704033 z" id="svg_5" fill="#ffffff" fill-opacity="1"/>
	</g>
	<g id="svg_6" fill="#ffffff" fill-opacity="1">
		<path d="M354.2919918704033,222.0929918704033 c-14.799,0 -22.337,-6.899 -28.988,-12.986 c-6.005,-5.497 -10.749,-9.839 -20.886,-9.839 c-10.137,0 -14.881,4.3420000000000005 -20.887,9.838000000000001 c-6.65,6.088 -14.188,12.987 -28.988,12.987 c-14.8,0 -22.337,-6.899 -28.988,-12.987 c-6.005,-5.496 -10.748,-9.838000000000001 -20.885,-9.838000000000001 c-10.136,0 -14.879,4.3420000000000005 -20.884,9.838000000000001 c-6.65,6.088 -14.188,12.987 -28.988,12.987 c-14.798,0 -22.334,-6.899 -28.984,-12.987 c-6.004,-5.496 -10.747,-9.838000000000001 -20.882,-9.838000000000001 c-10.136,0 -14.879,4.3420000000000005 -20.884,9.838000000000001 c-6.65,6.088 -14.188,12.987 -28.987,12.987 c-14.8,0 -22.338,-6.899 -28.989,-12.987 c-6.005,-5.496 -10.749,-9.838000000000001 -20.885,-9.838000000000001 c-3.313,0 -6,-2.6870000000000003 -6,-6 c0,-3.314 2.6870000000000003,-6 6,-6 c14.799,0 22.337,6.899 28.988,12.986 c6.005,5.497 10.749,9.839 20.886,9.839 c10.136,0 14.879,-4.3420000000000005 20.884,-9.839 c6.65,-6.087 14.188,-12.986 28.987,-12.986 c14.798,0 22.335,6.899 28.985,12.987 c6.004,5.496 10.746,9.838000000000001 20.881,9.838000000000001 c10.137,0 14.88,-4.3420000000000005 20.885,-9.839 c6.65,-6.087 14.188,-12.986 28.987,-12.986 c14.8,0 22.337,6.899 28.988,12.986 c6.005,5.497 10.749,9.839 20.885,9.839 c10.138,0 14.881,-4.3420000000000005 20.886,-9.839 c6.651,-6.087 14.189,-12.986 28.989,-12.986 s22.338,6.899 28.989,12.986 c6.005,5.497 10.748,9.839 20.885,9.839 c10.139,0 14.883000000000001,-4.3420000000000005 20.89,-9.839 c6.651,-6.087 14.19,-12.986 28.991,-12.986 c3.313,0 6,2.686 6,6 c0,3.313 -2.6870000000000003,6 -6,6 c-10.139,0 -14.883000000000001,4.3420000000000005 -20.89,9.839 C376.6319918704033,215.1939918704033 369.0939918704033,222.0929918704033 354.2919918704033,222.0929918704033 z" id="svg_7" fill="#ffffff" fill-opacity="1"/>
	</g>
	<g id="svg_8" fill="#ffffff" fill-opacity="1">
		<path d="M354.2919918704033,274.0929918704033 c-14.799,0 -22.337,-6.899 -28.988,-12.986 c-6.005,-5.497 -10.749,-9.839 -20.886,-9.839 c-10.137,0 -14.881,4.3420000000000005 -20.887,9.838000000000001 c-6.65,6.088 -14.188,12.987 -28.988,12.987 c-14.8,0 -22.337,-6.899 -28.988,-12.987 c-6.005,-5.496 -10.748,-9.838000000000001 -20.885,-9.838000000000001 c-10.136,0 -14.879,4.3420000000000005 -20.884,9.838000000000001 c-6.65,6.088 -14.188,12.987 -28.988,12.987 c-14.798,0 -22.334,-6.899 -28.984,-12.987 c-6.004,-5.496 -10.747,-9.838000000000001 -20.882,-9.838000000000001 c-10.136,0 -14.879,4.3420000000000005 -20.884,9.838000000000001 c-6.65,6.088 -14.188,12.987 -28.987,12.987 c-14.8,0 -22.338,-6.899 -28.989,-12.987 c-6.005,-5.496 -10.749,-9.838000000000001 -20.885,-9.838000000000001 c-3.313,0 -6,-2.6870000000000003 -6,-6 c0,-3.314 2.6870000000000003,-6 6,-6 c14.799,0 22.337,6.899 28.988,12.986 c6.005,5.497 10.749,9.839 20.886,9.839 c10.136,0 14.879,-4.3420000000000005 20.884,-9.839 c6.65,-6.087 14.188,-12.986 28.987,-12.986 c14.798,0 22.335,6.899 28.985,12.987 c6.004,5.496 10.746,9.838000000000001 20.881,9.838000000000001 c10.137,0 14.88,-4.3420000000000005 20.885,-9.839 c6.65,-6.087 14.188,-12.986 28.987,-12.986 c14.8,0 22.337,6.899 28.988,12.986 c6.005,5.497 10.749,9.839 20.885,9.839 c10.138,0 14.881,-4.3420000000000005 20.886,-9.839 c6.651,-6.087 14.189,-12.986 28.989,-12.986 s22.338,6.899 28.989,12.986 c6.005,5.497 10.748,9.839 20.885,9.839 c10.139,0 14.883000000000001,-4.3420000000000005 20.89,-9.839 c6.651,-6.087 14.19,-12.986 28.991,-12.986 c3.313,0 6,2.686 6,6 c0,3.313 -2.6870000000000003,6 -6,6 c-10.139,0 -14.883000000000001,4.3420000000000005 -20.89,9.839 C376.6319918704033,267.1939918704033 369.0939918704033,274.0929918704033 354.2919918704033,274.0929918704033 z" id="svg_9" fill="#ffffff" fill-opacity="1"/>
	</g>
	<g id="svg_10" fill="#ffffff" fill-opacity="1">
		<path d="M354.2919918704033,326.0929918704033 c-14.799,0 -22.337,-6.899 -28.988,-12.986 c-6.005,-5.497 -10.749,-9.839 -20.886,-9.839 c-10.137,0 -14.881,4.3420000000000005 -20.887,9.838000000000001 c-6.65,6.088 -14.188,12.987 -28.988,12.987 c-14.8,0 -22.337,-6.899 -28.988,-12.987 c-6.005,-5.496 -10.748,-9.838000000000001 -20.885,-9.838000000000001 c-10.136,0 -14.879,4.3420000000000005 -20.884,9.838000000000001 c-6.65,6.088 -14.188,12.987 -28.988,12.987 c-14.798,0 -22.334,-6.899 -28.984,-12.987 c-6.004,-5.496 -10.747,-9.838000000000001 -20.882,-9.838000000000001 c-10.136,0 -14.879,4.3420000000000005 -20.884,9.838000000000001 c-6.65,6.088 -14.188,12.987 -28.987,12.987 c-14.8,0 -22.338,-6.899 -28.989,-12.987 c-6.005,-5.496 -10.749,-9.838000000000001 -20.885,-9.838000000000001 c-3.313,0 -6,-2.6870000000000003 -6,-6 c0,-3.315 2.6870000000000003,-6 6,-6 c14.799,0 22.337,6.899 28.988,12.986 c6.005,5.497 10.749,9.839 20.886,9.839 c10.136,0 14.879,-4.3420000000000005 20.884,-9.839 c6.65,-6.087 14.188,-12.986 28.987,-12.986 c14.798,0 22.335,6.899 28.985,12.987 c6.004,5.496 10.746,9.838000000000001 20.881,9.838000000000001 c10.137,0 14.88,-4.3420000000000005 20.885,-9.839 c6.65,-6.087 14.188,-12.986 28.987,-12.986 c14.8,0 22.337,6.899 28.988,12.986 c6.005,5.497 10.749,9.839 20.885,9.839 c10.138,0 14.881,-4.3420000000000005 20.886,-9.839 c6.651,-6.087 14.189,-12.986 28.989,-12.986 s22.338,6.899 28.989,12.986 c6.005,5.497 10.748,9.839 20.885,9.839 c10.139,0 14.883000000000001,-4.3420000000000005 20.89,-9.839 c6.651,-6.087 14.19,-12.986 28.991,-12.986 c3.313,0 6,2.685 6,6 c0,3.313 -2.6870000000000003,6 -6,6 c-10.139,0 -14.883000000000001,4.3420000000000005 -20.89,9.839 C376.6319918704033,319.1939918704033 369.0939918704033,326.0929918704033 354.2919918704033,326.0929918704033 z" id="svg_11" fill="#ffffff" fill-opacity="1"/>
	</g>
</g><g id="svg_12">
</g><g id="svg_13">
</g><g id="svg_14">
</g><g id="svg_15">
</g><g id="svg_16">
</g><g id="svg_17">
</g><g id="svg_18">
</g><g id="svg_19">
</g><g id="svg_20">
</g><g id="svg_21">
</g><g id="svg_22">
</g><g id="svg_23">
</g><g id="svg_24">
</g><g id="svg_25">
</g><g id="svg_26">
</g></g></svg>